<svg width="100" height="100" viewBox="0 0 100 100" fill="none" xmlns="http://www.w3.org/2000/svg">
<g clip-path="url(#clip0_76_18)">
<path d="M59.5812 28H39.418C32.5707 28 27 33.571 27 40.4183V60.5814C27 67.429 32.5707 72.9997 39.418 72.9997H59.5812C66.429 72.9997 71.9997 67.4287 71.9997 60.5814V40.4183C72 33.571 66.429 28 59.5812 28ZM68.0074 60.5814C68.0074 65.2275 64.2275 69.0071 59.5814 69.0071H39.418C34.7723 69.0074 30.9926 65.2275 30.9926 60.5814V40.4183C30.9926 35.7725 34.7723 31.9926 39.418 31.9926H59.5812C64.2272 31.9926 68.0071 35.7725 68.0071 40.4183V60.5814H68.0074Z" fill="#222222"/>
<path d="M49.4998 38.905C43.1061 38.905 37.9045 44.1066 37.9045 50.5003C37.9045 56.8938 43.1061 62.0951 49.4998 62.0951C55.8936 62.0951 61.0951 56.8938 61.0951 50.5003C61.0951 44.1066 55.8936 38.905 49.4998 38.905ZM49.4998 58.1022C45.3079 58.1022 41.8971 54.692 41.8971 50.5001C41.8971 46.3078 45.3076 42.8974 49.4998 42.8974C53.6921 42.8974 57.1025 46.3078 57.1025 50.5001C57.1025 54.692 53.6918 58.1022 49.4998 58.1022Z" fill="#222222"/>
<path d="M61.5815 35.5195C60.8122 35.5195 60.0566 35.831 59.5133 36.3766C58.9674 36.9196 58.6536 37.6755 58.6536 38.4474C58.6536 39.2169 58.9676 39.9726 59.5133 40.5183C60.0563 41.0613 60.8122 41.3753 61.5815 41.3753C62.3534 41.3753 63.1066 41.0613 63.6523 40.5183C64.1979 39.9726 64.5094 39.2167 64.5094 38.4474C64.5094 37.6755 64.1979 36.9196 63.6523 36.3766C63.1093 35.831 62.3534 35.5195 61.5815 35.5195Z" fill="#222222"/>
</g>
<circle cx="50" cy="50" r="48.75" stroke="#222222" stroke-width="2.5"/>
<defs>
<clipPath id="clip0_76_18">
<rect width="45" height="45" fill="white" transform="translate(27 28)"/>
</clipPath>
</defs>
</svg>
