<svg width="100" height="100" viewBox="0 0 100 100" fill="none" xmlns="http://www.w3.org/2000/svg">
<g clip-path="url(#clip0_509_1496)">
<path d="M28.129 30.1015C28.1106 30.1292 29.6044 32.1671 31.4395 34.62C33.2745 37.0729 37.1751 42.2921 40.1075 46.2112L45.4374 53.3392L45.0963 53.7265C44.9026 53.9386 40.9835 58.1712 36.3913 63.1323C31.7991 68.1026 28.0276 72.1968 28.0184 72.2429C27.9999 72.289 28.8022 72.3259 29.9549 72.3167L31.919 72.3075L32.5645 71.5974C32.9241 71.2101 36.2622 67.6046 39.9876 63.5749C43.7131 59.5452 46.8667 56.1333 46.9958 55.9858L47.2264 55.7183L49.0706 58.1897C50.085 59.5452 52.879 63.289 55.2766 66.4981L59.6475 72.3259H66.3329C71.8934 72.3259 73.0092 72.3075 72.9723 72.2061C72.9446 72.1323 71.2479 69.8454 69.2008 67.1067C67.1536 64.3772 64.8114 61.2419 63.9999 60.1538C63.1792 59.0657 60.7725 55.829 58.6331 52.9796C56.4938 50.121 54.7417 47.7419 54.7417 47.705C54.7417 47.6405 66.0471 35.3669 69.8924 31.2634L70.9897 30.0923H68.9702L66.96 30.1015L64.6085 32.6466C63.3176 34.0483 60.1547 37.4786 57.5727 40.2542L52.8975 45.3075L47.2264 37.7276L41.546 30.1384L34.8606 30.0923C31.1813 30.0647 28.1475 30.0739 28.129 30.1015ZM43.9713 38.2716C46.1567 41.204 49.5317 45.7132 51.4682 48.3044C53.4047 50.8864 57.7018 56.6405 61.0215 61.0759C64.3411 65.5206 67.0891 69.1999 67.1352 69.2645C67.1905 69.3474 66.5358 69.3751 64.1475 69.3751H61.0952L55.046 61.2788C41.085 42.6241 34.0399 33.1999 33.9569 33.0616C33.9016 32.9786 34.5286 32.9509 36.9354 32.9509H39.9876L43.9713 38.2716Z" fill="#222222"/>
</g>
<circle cx="50" cy="50" r="48.75" stroke="#222222" stroke-width="2.5"/>
<defs>
<clipPath id="clip0_509_1496">
<rect width="45" height="42.3258" fill="white" transform="translate(28 30)"/>
</clipPath>
</defs>
</svg>
