<svg width="100" height="100" viewBox="0 0 100 100" fill="none" xmlns="http://www.w3.org/2000/svg">
<path d="M44.0376 23.3512C36.7939 24.9662 30.8564 28.98 26.7714 35.06C19.6226 45.7712 21.0476 60.14 30.1676 69.3075C32.8989 72.0625 37.0551 74.7225 40.1901 75.7437C41.3539 76.1237 41.4964 76.1237 42.0189 75.7675C42.5889 75.3875 42.6126 75.2925 42.6126 72.5612V69.7587L40.5226 69.8775C38.0764 69.9962 36.1764 69.5687 35.0364 68.595C34.6326 68.2625 33.8489 67.1225 33.3026 66.0775C32.4001 64.32 31.7351 63.5125 29.8826 61.8737C29.2651 61.3275 29.2414 61.3037 29.6689 60.995C30.6901 60.235 32.7564 60.9712 34.0626 62.5387C36.3426 65.3175 37.2214 66.0537 38.5276 66.3387C39.6914 66.5762 40.7601 66.4812 42.3751 66.0062C42.5889 65.935 42.8739 65.4362 43.0164 64.8662C43.1589 64.32 43.5389 63.4887 43.8476 63.0375L44.4176 62.2062L42.4939 61.8262C38.4564 60.995 35.9626 59.5462 34.3239 57.0762C32.8039 54.7962 32.3051 52.825 32.2814 49.1437C32.2814 45.6762 32.6614 44.2512 34.1576 42.3037C34.8226 41.4487 34.8939 41.1875 34.7039 40.6887C34.3476 39.8337 34.4426 36.2237 34.8226 35.1312C35.1314 34.3237 35.2976 34.1812 35.9389 34.11C37.0076 33.9912 39.0026 34.68 41.0214 35.82L42.7551 36.8175L44.2751 36.4612C46.4364 35.9625 52.9201 35.9862 54.8676 36.4612L56.3401 36.8412L57.7176 36.01C59.5464 34.9175 61.8739 34.0625 63.0376 34.0625C63.9639 34.0625 63.9639 34.0862 64.3439 35.2975C64.7476 36.6987 64.8189 39.24 64.4626 40.4512C64.2726 41.1637 64.3201 41.3775 64.8426 42.0662C67.4314 45.4862 67.7164 51.1625 65.5314 55.8175C64.0589 58.8812 60.9476 61.0187 56.7676 61.8025L54.7726 62.1825L55.5089 63.4887L56.2689 64.8187L56.3401 70.115L56.4351 75.4112L57.0289 75.7912C57.5751 76.1475 57.6939 76.1475 58.8339 75.7437C60.7339 75.1025 63.9876 73.345 65.7689 71.9912C76.3614 64.0587 79.7814 49.8325 73.9151 38.005C70.4714 31.0462 63.9639 25.7025 56.5064 23.7075C53.2526 22.8525 47.1251 22.6625 44.0376 23.3512Z" fill="#222222"/>
<circle cx="50" cy="50" r="48.75" stroke="#222222" stroke-width="2.5"/>
</svg>
