<svg width="16" height="15" viewBox="0 0 16 15" fill="none" xmlns="http://www.w3.org/2000/svg">
<path d="M8.99989 0.98485C8.99152 0.432629 8.53707 -0.00825225 7.98485 0.000114739C7.43263 0.00848173 6.99175 0.462928 7.00011 1.01515L8.99989 0.98485ZM7.49306 14.2163C7.88945 14.6009 8.52255 14.5913 8.90711 14.1949L15.1739 7.73524C15.5585 7.33884 15.5489 6.70575 15.1525 6.32118C14.7561 5.93662 14.123 5.94621 13.7385 6.34261L8.16795 12.0845L2.42604 6.51401C2.02965 6.12945 1.39655 6.13904 1.01199 6.53543C0.627427 6.93183 0.63702 7.56492 1.03342 7.94949L7.49306 14.2163ZM7.00011 1.01515L7.18949 13.5137L9.18926 13.4834L8.99989 0.98485L7.00011 1.01515Z" fill="#222222"/>
</svg>
