<svg width="100" height="100" viewBox="0 0 100 100" fill="none" xmlns="http://www.w3.org/2000/svg">
<g clip-path="url(#clip0_76_22)">
<path d="M38.4747 39.4771H29.4409C29.04 39.4771 28.7151 39.8021 28.7151 40.2029V69.2247C28.7151 69.6256 29.04 69.9505 29.4409 69.9505H38.4747C38.8757 69.9505 39.2005 69.6256 39.2005 69.2247V40.2029C39.2005 39.8021 38.8757 39.4771 38.4747 39.4771Z" fill="#222222"/>
<path d="M33.9612 25.0496C30.6742 25.0496 28 27.7208 28 31.0042C28 34.2891 30.6742 36.9614 33.9612 36.9614C37.2456 36.9614 39.9176 34.2889 39.9176 31.0042C39.9177 27.7208 37.2456 25.0496 33.9612 25.0496Z" fill="#222222"/>
<path d="M61.453 38.7556C57.8246 38.7556 55.1425 40.3154 53.5157 42.0876V40.2027C53.5157 39.8019 53.1908 39.4769 52.7899 39.4769H44.1384C43.7375 39.4769 43.4126 39.8019 43.4126 40.2027V69.2245C43.4126 69.6255 43.7375 69.9503 44.1384 69.9503H53.1525C53.5534 69.9503 53.8783 69.6255 53.8783 69.2245V54.8655C53.8783 50.0268 55.1926 48.1417 58.5656 48.1417C62.239 48.1417 62.5309 51.1637 62.5309 55.1144V69.2247C62.5309 69.6256 62.8558 69.9505 63.2567 69.9505H72.2741C72.6751 69.9505 73 69.6256 73 69.2247V53.3057C73 46.1108 71.628 38.7556 61.453 38.7556Z" fill="#222222"/>
</g>
<circle cx="50" cy="50" r="48.75" stroke="#222222" stroke-width="2.5"/>
<defs>
<clipPath id="clip0_76_22">
<rect width="45" height="45" fill="white" transform="translate(28 25)"/>
</clipPath>
</defs>
</svg>
