<svg width="40" height="40" viewBox="0 0 40 40" fill="none" xmlns="http://www.w3.org/2000/svg">
<path d="M32.8042 10.591C33.6829 9.71231 33.6829 8.28769 32.8042 7.40901C31.9256 6.53033 30.5009 6.53033 29.6223 7.40901L32.8042 10.591ZM7.75005 30.2132C7.75005 31.4558 8.75741 32.4632 10.0001 32.4632H30.2501C31.4927 32.4632 32.5001 31.4558 32.5001 30.2132C32.5001 28.9706 31.4927 27.9632 30.2501 27.9632H12.2501V9.9632C12.2501 8.72056 11.2427 7.7132 10.0001 7.7132C8.75741 7.7132 7.75005 8.72056 7.75005 9.9632V30.2132ZM29.6223 7.40901L19.0157 18.0156L22.1976 21.1976L32.8042 10.591L29.6223 7.40901ZM19.0157 18.0156L8.40906 28.6222L11.591 31.8042L22.1976 21.1976L19.0157 18.0156Z" fill="#F5F5F5"/>
</svg>
